<?xml version="1.0" encoding="UTF-8"?>
<svg id="OBJECTS" xmlns="http://www.w3.org/2000/svg" version="1.1" viewBox="0 0 91.09 51.88">
  <!-- Generator: Adobe Illustrator 29.5.1, SVG Export Plug-In . SVG Version: 2.1.0 Build 141)  -->
  <defs>
    <style>
      .st0 {
        opacity: .3;
      }

      .st1 {
        fill: #ff940f;
      }

      .st2 {
        fill: #5d1eff;
      }
    </style>
  </defs>
  <g>
    <g>
      <path class="st2" d="M27.92,0C21.99,10.15,11.51,17.5,0,19.83v12.19c15.73-2.43,30.24-12.21,38.28-25.95L27.92,0Z"/>
      <path class="st0" d="M22.56,22.89c-7.21-2.56-14.94-3.66-22.56-3.03l2.8,11.63c7.07-1.5,13.81-4.47,19.76-8.6Z"/>
      <path class="st2" d="M27.92,51.88c-5.93-10.15-16.41-17.5-27.92-19.83v-12.19c15.73,2.43,30.24,12.21,38.28,25.95l-10.36,6.06Z"/>
    </g>
    <g>
      <path class="st2" d="M63.17,51.88c5.93-10.15,16.41-17.5,27.92-19.83v-12.19c-15.73,2.43-30.24,12.21-38.28,25.95l10.36,6.06Z"/>
      <path class="st0" d="M68.53,28.98c7.21,2.56,14.94,3.66,22.56,3.03l-2.8-11.63c-7.07,1.5-13.81,4.47-19.76,8.6Z"/>
      <path class="st2" d="M63.17,0c5.93,10.15,16.41,17.5,27.92,19.83v12.19c-15.73-2.43-30.24-12.21-38.28-25.95L63.17,0Z"/>
    </g>
  </g>
  <circle class="st1" cx="45.54" cy="25.94" r="12" transform="translate(12.64 66.74) rotate(-80.78)"/>
</svg>